<?xml version="1.0" encoding="UTF-8"?>
<svg width="435px" height="890px" viewBox="0 0 435 890" version="1.1" xmlns="http://www.w3.org/2000/svg" xmlns:xlink="http://www.w3.org/1999/xlink">
    <title>iPhone 14 Pro - svg export</title>
    <g id="iPhone-14-Pro---svg-export" stroke="none" stroke-width="1" fill="none" fill-rule="evenodd">
        <g id="iPhone-14-Pro">
            <g id="Buttons-+-mute-switch" transform="translate(0.000000, 173.000000)" fill="#36353A" fill-rule="nonzero">
                <g id="Group">
                    <path d="M1.9229139,150 L3.0770861,150 C3.74572515,150 3.98818983,150.069619 4.23263428,150.20035 C4.47707872,150.33108 4.66892015,150.522921 4.79965047,150.767366 C4.93038079,151.01181 5,151.254275 5,151.922914 L5,215.577086 C5,216.245725 4.93038079,216.48819 4.79965047,216.732634 C4.66892015,216.977079 4.47707872,217.16892 4.23263428,217.29965 C3.98818983,217.430381 3.74572515,217.5 3.0770861,217.5 L1.9229139,217.5 C1.25427485,217.5 1.01181017,217.430381 0.767365722,217.29965 C0.522921278,217.16892 0.331079847,216.977079 0.200349528,216.732634 C0.0696192084,216.48819 -5.17920154e-17,216.245725 -5.17920154e-17,215.577086 L-5.17920154e-17,151.922914 C-5.17920154e-17,151.254275 0.0696192084,151.01181 0.200349528,150.767366 C0.331079847,150.522921 0.522921278,150.33108 0.767365722,150.20035 C1.01181017,150.069619 1.25427485,150 1.9229139,150 Z" id="Volume-down"></path>
                    <path d="M1.9229139,64 L3.0770861,64 C3.74572515,64 3.98818983,64.0696192 4.23263428,64.2003495 C4.47707872,64.3310798 4.66892015,64.5229213 4.79965047,64.7673657 C4.93038079,65.0118102 5,65.2542748 5,65.9229139 L5,129.577086 C5,130.245725 4.93038079,130.48819 4.79965047,130.732634 C4.66892015,130.977079 4.47707872,131.16892 4.23263428,131.29965 C3.98818983,131.430381 3.74572515,131.5 3.0770861,131.5 L1.9229139,131.5 C1.25427485,131.5 1.01181017,131.430381 0.767365722,131.29965 C0.522921278,131.16892 0.331079847,130.977079 0.200349528,130.732634 C0.0696192084,130.48819 -5.17920154e-17,130.245725 -5.17920154e-17,129.577086 L-5.17920154e-17,65.9229139 C-5.17920154e-17,65.2542748 0.0696192084,65.0118102 0.200349528,64.7673657 C0.331079847,64.5229213 0.522921278,64.3310798 0.767365722,64.2003495 C1.01181017,64.0696192 1.25427485,64 1.9229139,64 Z" id="Volume-up"></path>
                    <path d="M1.9229139,-7.76880231e-17 L3.0770861,-7.76880231e-17 C3.74572515,-7.76880231e-17 3.98818983,0.0696192084 4.23263428,0.200349528 C4.47707872,0.331079847 4.66892015,0.522921278 4.79965047,0.767365722 C4.93038079,1.01181017 5,1.25427485 5,1.9229139 L5,32.0770861 C5,32.7457252 4.93038079,32.9881898 4.79965047,33.2326343 C4.66892015,33.4770787 4.47707872,33.6689202 4.23263428,33.7996505 C3.98818983,33.9303808 3.74572515,34 3.0770861,34 L1.9229139,34 C1.25427485,34 1.01181017,33.9303808 0.767365722,33.7996505 C0.522921278,33.6689202 0.331079847,33.4770787 0.200349528,33.2326343 C0.0696192084,32.9881898 -5.17920154e-17,32.7457252 -5.17920154e-17,32.0770861 L-5.17920154e-17,1.9229139 C-5.17920154e-17,1.25427485 0.0696192084,1.01181017 0.200349528,0.767365722 C0.331079847,0.522921278 0.522921278,0.331079847 0.767365722,0.200349528 C1.01181017,0.0696192084 1.25427485,-7.76880231e-17 1.9229139,-7.76880231e-17 Z" id="Mute-switch"></path>
                </g>
                <path d="M431.410137,111 L433.589863,111 C434.080198,111 434.258006,111.051054 434.437265,111.146923 C434.616524,111.242792 434.757208,111.383476 434.853077,111.562735 C434.948946,111.741994 435,111.919802 435,112.410137 L435,215.589863 C435,216.080198 434.948946,216.258006 434.853077,216.437265 C434.757208,216.616524 434.616524,216.757208 434.437265,216.853077 C434.258006,216.948946 434.080198,217 433.589863,217 L431.410137,217 C430.919802,217 430.741994,216.948946 430.562735,216.853077 C430.383476,216.757208 430.242792,216.616524 430.146923,216.437265 C430.051054,216.258006 430,216.080198 430,215.589863 L430,112.410137 C430,111.919802 430.051054,111.741994 430.146923,111.562735 C430.242792,111.383476 430.383476,111.242792 430.562735,111.146923 C430.741994,111.051054 430.919802,111 431.410137,111 Z" id="Power"></path>
            </g>
            <path d="M339.41819,0 C371.958624,0 383.758572,3.38813481 395.654868,9.75034369 C407.551164,16.1125526 416.887447,25.4488355 423.249656,37.3451318 C429.611865,49.2414281 433,61.0413758 433,93.5818098 L433,796.41819 C433,828.958624 429.611865,840.758572 423.249656,852.654868 C416.887447,864.551164 407.551164,873.887447 395.654868,880.249656 C383.758572,886.611865 371.958624,890 339.41819,890 L95.5818098,890 C63.0413758,890 51.2414281,886.611865 39.3451318,880.249656 C27.4488355,873.887447 18.1125526,864.551164 11.7503437,852.654868 C5.38813481,840.758572 2,828.958624 2,796.41819 L2,93.5818098 C2,61.0413758 5.38813481,49.2414281 11.7503437,37.3451318 C18.1125526,25.4488355 27.4488355,16.1125526 39.3451318,9.75034369 C51.2414281,3.38813481 63.0413758,0 95.5818098,0 L339.41819,0 Z M344.992643,19.5 L90.007357,19.5 C66.9546263,19.5493439 57.6924189,21.953224 49.1532038,26.432848 L49.125166,26.712583 C40.325166,31.4188745 32.9188745,38.325166 28.212583,47.125166 L28.432848,47.653204 C23.9070424,56.2804523 21.5,65.1353141 21.5,88.7249 L21.5,801.992643 C21.5493439,825.045373 23.953224,833.807581 28.432848,842.346796 L28.712583,842.874834 C33.4188745,851.674834 40.325166,858.581125 49.125166,863.287417 L49.653204,863.567152 C58.2804523,868.092958 67.1353141,870.5 90.7249,870.5 L344.2751,870.5 C367.864685,870.5 376.719548,868.092958 385.346796,863.567152 L385.874834,863.287417 C394.674834,858.581125 401.581125,851.674834 406.287417,842.874834 L406.567152,842.346796 C411.092958,833.719548 413.5,824.864685 413.5,801.2751 L413.5,88.7249 C413.5,65.1353141 411.092958,56.2804523 406.567152,47.653204 L406.287417,47.125166 C401.581125,38.325166 394.674834,31.4188745 385.874834,26.712583 L385.346796,26.432848 C376.719548,21.9070424 367.864685,19.5 344.2751,19.5 L344.992643,19.5 Z" id="Fill" fill="#000000" fill-rule="nonzero"></path>
            <path d="M341.119304,3 C348.66288,3.0260351 357.958879,3.04160865 369.007302,3.04672065 L369.007302,3.04672153 C402.679376,3.06331821 429.969388,30.3604223 429.977234,64.0324998 C429.979485,75.4707277 429.986849,85.0418813 429.999328,92.7459603 L429.999328,797.294477 C429.985824,805.086763 429.977809,814.652902 429.975285,825.992895 L429.975284,825.992895 C429.966636,859.671247 402.666186,886.970303 368.987833,886.97723 C357.540642,886.979476 347.962712,886.986842 340.254045,886.999328 L94.7055228,886.999328 C86.9167468,886.98583 77.4107157,886.977816 66.1874293,886.975288 L66.1874293,886.975289 C32.7436617,886.969053 5.54086264,860.035529 5.20193551,826.593478 C5.08353291,814.918003 5.01621968,805.172433 5,797.356766 L5,93.5818057 C5,85.3882016 5.05834322,75.337684 5.17502967,63.4302528 L5.17503216,63.4302529 C5.50295152,29.9814354 32.7071869,3.03619241 66.1576107,3.02824642 C77.4628973,3.02536434 86.9581049,3.01594878 94.6432336,3 L341.119304,3 Z" id="Inner-Bezel" stroke="#36353A" stroke-width="6"></path>
            <g id="Speaker-cutout" transform="translate(175.511238, 7.000306)" fill-rule="nonzero">
                <g id="path-1-link" fill="#1E1A24">
                    <path d="M83.238762,2.49969394 L2.738762,2.49969394 C1.304356,2.49969394 0.126451,1.40147883 0,0 L85.977524,0 C85.851073,1.40147883 84.673168,2.49969394 83.238762,2.49969394 Z" id="path-1"></path>
                </g>
                <g id="path-1-link" fill="#000000">
                    <path d="M83.238762,2.49969394 L2.738762,2.49969394 C1.304356,2.49969394 0.126451,1.40147883 0,0 L85.977524,0 C85.851073,1.40147883 84.673168,2.49969394 83.238762,2.49969394 Z" id="path-1"></path>
                </g>
            </g>
        </g>
    </g>
</svg>